<?xml version="1.0" encoding="UTF-8" standalone="no"?>
<svg
   xmlns:dc="http://purl.org/dc/elements/1.1/"
   xmlns:cc="http://creativecommons.org/ns#"
   xmlns:rdf="http://www.w3.org/1999/02/22-rdf-syntax-ns#"
   xmlns:svg="http://www.w3.org/2000/svg"
   xmlns="http://www.w3.org/2000/svg"
   xmlns:sodipodi="http://sodipodi.sourceforge.net/DTD/sodipodi-0.dtd"
   xmlns:inkscape="http://www.inkscape.org/namespaces/inkscape"
   inkscape:version="1.0 (4035a4fb49, 2020-05-01)"
   sodipodi:docname="play-circle.svg"
   id="svg4"
   version="1.1"
   viewBox="0 0 512 512">
  <metadata
     id="metadata10">
    <rdf:RDF>
      <cc:Work
         rdf:about="">
        <dc:format>image/svg+xml</dc:format>
        <dc:type
           rdf:resource="http://purl.org/dc/dcmitype/StillImage" />
        <dc:title></dc:title>
      </cc:Work>
    </rdf:RDF>
  </metadata>
  <defs
     id="defs8" />
  <sodipodi:namedview
     inkscape:current-layer="svg4"
     inkscape:window-maximized="1"
     inkscape:window-y="-8"
     inkscape:window-x="-8"
     inkscape:cy="382.92072"
     inkscape:cx="271.18136"
     inkscape:zoom="1.198767"
     showgrid="false"
     id="namedview6"
     inkscape:window-height="1017"
     inkscape:window-width="1920"
     inkscape:pageshadow="2"
     inkscape:pageopacity="0"
     guidetolerance="10"
     gridtolerance="10"
     objecttolerance="10"
     borderopacity="1"
     bordercolor="#666666"
     pagecolor="#ffffff" />
  <!-- Font Awesome Free 5.15.1 by @fontawesome - https://fontawesome.com License - https://fontawesome.com/license/free (Icons: CC BY 4.0, Fonts: SIL OFL 1.1, Code: MIT License) -->
  <path
     id="path2"
     d="M256 8C119 8 8 119 8 256s111 248 248 248 248-111 248-248S393 8 256 8zm115.7 272l-176 101c-15.8 8.8-35.7-2.5-35.7-21V152c0-18.4 19.8-29.8 35.7-21l176 107c16.4 9.2 16.4 32.9 0 42z" />
  <path
     id="path26"
     d="M 253.88168,5.2659601 C 182.31419,5.5642102 111.6476,38.327646 65.467305,93.06012 26.796401,138.05341 4.7754003,197.08077 5.4280361,256.48271 c -0.503552,67.9712 28.6829769,135.6309 78.7184469,181.69862 41.008847,39.9363 96.823167,63.757 153.751187,67.81771 25.48377,0.82278 51.31036,0.41405 76.11567,-6.15293 48.578,-11.31689 93.45663,-37.66953 126.89971,-74.69721 34.82464,-37.60644 57.23601,-86.49003 63.80507,-137.26829 2.95701,-29.58066 2.65646,-59.75307 -4.56241,-88.74039 C 486.36184,137.88299 448.14162,82.828205 395.95131,48.00872 354.40659,19.696955 304.12614,4.714938 253.88168,5.2659601 Z M 185.96521,131.08372 c 8.0152,0.2884 13.87669,7.0114 20.85146,10.17244 55.86282,33.72053 111.80637,67.39578 167.20636,101.90072 9.75976,8.48157 9.36169,26.63153 -2.58567,33.07109 -23.40409,15.10918 -48.2068,27.94382 -72.17448,42.13195 -36.58654,20.79884 -72.82954,42.24388 -109.91855,62.13372 -9.70759,2.87078 -20.76226,-3.16464 -24.74547,-12.12672 -2.60089,-18.17272 -1.22764,-36.59854 -1.6667,-54.93112 0.0717,-55.79033 0.22365,-111.58056 0.32418,-167.37087 3.76977,-9.22181 12.30196,-16.24227 22.70887,-14.98121 z"
     style="fill:#3f51b5;fill-opacity:1;stroke-width:0.83419" />
</svg>
